<svg xmlns="http://www.w3.org/2000/svg" width="30" height="30" viewBox="0 0 30 30">
  <g id="Group_4" data-name="Group 4" transform="translate(-428 -251)">
    <rect id="Rectangle_5" data-name="Rectangle 5" width="30" height="30" transform="translate(428 251)" fill="rgba(255,255,255,0)"/>
    <g id="noun-source-code-3146108" transform="translate(305.469 184.586)">
      <path id="Path_1735" data-name="Path 1735" d="M146.1,70.414H129.214A3.214,3.214,0,0,0,126,73.628V85.414a3.214,3.214,0,0,0,3.214,3.214h8v1.134a27.75,27.75,0,0,0-7.163.744A.874.874,0,1,0,130.5,92.2a27.33,27.33,0,0,1,7.156-.689,27.338,27.338,0,0,1,7.157.689h0a.874.874,0,1,0,.444-1.691,27.743,27.743,0,0,0-7.163-.743V88.628H146.1a3.213,3.213,0,0,0,3.213-3.213V73.628a3.214,3.214,0,0,0-3.214-3.214Zm-8.442,17.521a.492.492,0,1,1,.492-.492.492.492,0,0,1-.492.492Zm10.281-3.46a1.747,1.747,0,0,1-1.747,1.747H129.121a1.747,1.747,0,0,1-1.747-1.747V73.536a1.747,1.747,0,0,1,1.747-1.747h17.068a1.747,1.747,0,0,1,1.747,1.747Z" fill="#b1e3f5"/>
      <path id="Path_1736" data-name="Path 1736" d="M386.166,159.3l-.891.891,3.075,3.076-3.075,3.075.891.891,3.966-3.966Z" transform="translate(-245.784 -84.261)" fill="#b1e3f5"/>
      <path id="Path_1737" data-name="Path 1737" d="M225.339,159.3l.891.891-3.075,3.076,3.075,3.075-.891.891-3.966-3.966Z" transform="translate(-90.41 -84.261)" fill="#b1e3f5"/>
    </g>
  </g>
</svg>
