<svg xmlns="http://www.w3.org/2000/svg" width="21.667" height="26.187" viewBox="0 0 21.667 26.187">
  <path id="Path_18541" data-name="Path 18541" d="M14.833,28.687A2.705,2.705,0,0,0,17.542,26H12.125A2.705,2.705,0,0,0,14.833,28.687Zm8.125-8.058V13.915c0-4.123-2.207-7.574-6.094-8.487V4.514a2.031,2.031,0,0,0-4.063,0v.913c-3.873.913-6.094,4.351-6.094,8.487V20.63L4,23.316v1.343H25.667V23.316ZM20.25,21.973H9.417V13.915c0-3.331,2.045-6.043,5.417-6.043s5.417,2.713,5.417,6.043Z" transform="translate(-4 -2.5)" fill="#f9f9f9"/>
</svg>
