<svg xmlns="http://www.w3.org/2000/svg" width="30" height="30" viewBox="0 0 30 30">
  <g id="Group_6" data-name="Group 6" transform="translate(-688 -251)">
    <rect id="Rectangle_7" data-name="Rectangle 7" width="30" height="30" transform="translate(688 251)" fill="rgba(255,255,255,0)"/>
    <g id="noun-connection-1709941" transform="translate(551.478 151.252)">
      <path id="Path_7" data-name="Path 7" d="M144.678,103.747a1.945,1.945,0,1,0,0,3.89,1.9,1.9,0,0,0,.707-.138l4.176,5.633a3.533,3.533,0,0,0-.6,1.976c0,.093,0,.185.012.277l-3.668.578a3.569,3.569,0,1,0,.13,1.251l3.86-.609a3.588,3.588,0,0,0,1.039,1.3l-2.139,3.951a2.024,2.024,0,0,0-.311-.024,1.944,1.944,0,1,0,1.422.611l2.139-3.949a3.545,3.545,0,0,0,3.34-.65l2.842,2.257a1.912,1.912,0,0,0-.082.553,1.945,1.945,0,1,0,1.939-1.939,1.92,1.92,0,0,0-1.122.364l-2.763-2.195a3.529,3.529,0,0,0,.482-1.783c0-.119-.006-.237-.017-.353l5.641-4.275a1.932,1.932,0,0,0,1.069.324,1.945,1.945,0,1,0-1.951-1.951,1.919,1.919,0,0,0,.11.636l-5.254,3.982a3.547,3.547,0,0,0-5.225-1.252l-4.107-5.539a1.936,1.936,0,0,0-1.663-2.932Zm0,1.256a.689.689,0,1,1-.7.683A.691.691,0,0,1,144.678,105Zm18.09,3.165a.689.689,0,0,1,0,1.378.689.689,0,1,1,0-1.378Zm-10.251,4.636a2.3,2.3,0,1,1,0,4.6,2.314,2.314,0,0,1-.988-.221h0a.635.635,0,0,0-.165-.086,2.309,2.309,0,0,1-.712-3.35h0a.627.627,0,0,0,.323-.358,2.294,2.294,0,0,1,1.542-.59Zm-10.634,1.855a2.3,2.3,0,0,1,2.282,2h0a.625.625,0,0,0,.016.159c0,.031.005.072.005.146a2.3,2.3,0,1,1-2.3-2.3Zm17.6,5.317a.689.689,0,1,1-.683.683A.69.69,0,0,1,159.479,119.977Zm-11.6,3.116a.7.7,0,0,1,.259.045h0a.632.632,0,0,0,.129.068.69.69,0,1,1-.387-.114Z" fill="#b1e3f5" fill-rule="evenodd"/>
    </g>
  </g>
</svg>
