<svg xmlns="http://www.w3.org/2000/svg" width="30" height="30" viewBox="0 0 30 30">
  <g id="Group_53478" data-name="Group 53478" transform="translate(-1694 -295)">
    <g id="noun-delete-4025464" transform="translate(1593.72 264.984)">
      <path id="Path_21523" data-name="Path 21523" d="M113.706,35.016a2.257,2.257,0,0,0-2.247,2.247v.747h-5.426a.75.75,0,1,0,0,1.5h1.343l.894,13.244a3.4,3.4,0,0,0,3.311,3.261h8.376a3.4,3.4,0,0,0,3.311-3.261l.9-13.244h1.34a.75.75,0,1,0,0-1.5h-5.425v-.747a2.257,2.257,0,0,0-2.247-2.247Zm0,1.5h4.125a.728.728,0,0,1,.747.747v.747h-5.625v-.747a.733.733,0,0,1,.753-.747Zm-4.836,2.994h13.791l-.888,13.139a1.852,1.852,0,0,1-1.816,1.866h-8.376a1.852,1.852,0,0,1-1.816-1.866Z"/>
      <path id="Path_21524" data-name="Path 21524" d="M280.8,209.91a.75.75,0,0,0-.747.753v7.5a.75.75,0,1,0,1.5,0v-7.5a.75.75,0,0,0-.753-.753Z" transform="translate(-167.279 -167.398)"/>
      <path id="Path_21525" data-name="Path 21525" d="M385.707,209.91a.75.75,0,0,0-.753.753v7.5a.75.75,0,1,0,1.5,0v-7.5a.75.75,0,0,0-.747-.753Z" transform="translate(-267.688 -167.398)"/>
    </g>
    <rect id="Rectangle_5078" data-name="Rectangle 5078" width="30" height="30" transform="translate(1694 295)" fill="rgba(255,255,255,0)"/>
  </g>
</svg>
