<svg xmlns="http://www.w3.org/2000/svg" width="229.248" height="48.016" viewBox="0 0 229.248 48.016">
  <g id="Elysium_Logo.03c41c06" transform="translate(-3.867 -3.874)">
    <g id="Group_56103" data-name="Group 56103" transform="translate(69.447 6.241)">
      <path id="Path_31168" data-name="Path 31168" d="M135.764,40.51l4.533.523a9.947,9.947,0,0,1-3.952,5.543,12.93,12.93,0,0,1-7.381,1.987c-3.778,0-6.742-1.046-8.951-3.137s-3.313-5.02-3.313-8.785c0-3.922,1.1-6.955,3.371-9.1a12,12,0,0,1,8.718-3.242,11.46,11.46,0,0,1,8.428,3.19c2.209,2.092,3.255,5.072,3.255,8.942v1.046H121.233a8.664,8.664,0,0,0,2.383,5.857,7.609,7.609,0,0,0,5.405,2.039,7.1,7.1,0,0,0,4.127-1.15A8.549,8.549,0,0,0,135.764,40.51Zm-14.356-6.327h14.414a7.564,7.564,0,0,0-1.627-4.392,6.989,6.989,0,0,0-5.405-2.249,7.294,7.294,0,0,0-5.057,1.83A6.675,6.675,0,0,0,121.408,34.183Z" transform="translate(-116.7 -15.986)" fill="#001276"/>
      <path id="Path_31169" data-name="Path 31169" d="M166.6,40.4V8.4h4.359V40.454H166.6Z" transform="translate(-137.598 -8.4)" fill="#001276"/>
      <path id="Path_31170" data-name="Path 31170" d="M183.809,57.407l-.465-3.713a12.233,12.233,0,0,0,2.5.366,5.639,5.639,0,0,0,2.325-.418,4.406,4.406,0,0,0,1.453-1.2,19.9,19.9,0,0,0,1.337-2.928c.058-.209.233-.523.407-.941L181.6,25.3h4.708l5.347,13.439a50.138,50.138,0,0,1,1.86,5.386,52.238,52.238,0,0,1,1.8-5.281L200.838,25.3H205.2l-9.822,23.583a45.758,45.758,0,0,1-2.441,5.281,8.2,8.2,0,0,1-2.674,2.876,6.615,6.615,0,0,1-3.6.889A10.1,10.1,0,0,1,183.809,57.407Z" transform="translate(-143.88 -16.463)" fill="#001276"/>
      <path id="Path_31171" data-name="Path 31171" d="M225.5,41.085l4.3-.627a5.314,5.314,0,0,0,2.034,3.608,7.6,7.6,0,0,0,4.65,1.255,7.419,7.419,0,0,0,4.475-1.1,3.186,3.186,0,0,0,1.453-2.615,2.315,2.315,0,0,0-1.279-2.092,18.848,18.848,0,0,0-4.475-1.307,48.377,48.377,0,0,1-6.684-1.882,6.224,6.224,0,0,1-2.79-2.2,5.488,5.488,0,0,1-.988-3.137,5.556,5.556,0,0,1,.814-2.876,6.267,6.267,0,0,1,2.15-2.2,9.4,9.4,0,0,1,2.79-1.15,14.565,14.565,0,0,1,3.778-.471,16.709,16.709,0,0,1,5.347.784,7.218,7.218,0,0,1,3.371,2.144,7.681,7.681,0,0,1,1.511,3.608l-4.3.523a4.1,4.1,0,0,0-1.686-2.824,6.653,6.653,0,0,0-3.952-.994,7.965,7.965,0,0,0-4.3.889,2.494,2.494,0,0,0-1.279,2.092,1.924,1.924,0,0,0,.523,1.36,3.8,3.8,0,0,0,1.686,1.046c.465.157,1.744.471,3.836.994a56.064,56.064,0,0,1,6.451,1.83,6.645,6.645,0,0,1,2.906,2.039,5.324,5.324,0,0,1,1.046,3.347,6.032,6.032,0,0,1-1.279,3.713,8.35,8.35,0,0,1-3.662,2.667,15.008,15.008,0,0,1-5.463.941q-5.057,0-7.672-1.882A8.49,8.49,0,0,1,225.5,41.085Z" transform="translate(-162.265 -15.986)" fill="#001276"/>
      <path id="Path_31172" data-name="Path 31172" d="M271.4,12.9V8.4h4.359v4.5Zm0,27.5V17.237h4.359V40.454H271.4Z" transform="translate(-181.487 -8.4)" fill="#001276"/>
      <path id="Path_31173" data-name="Path 31173" d="M307.129,48.465v-3.4a9.773,9.773,0,0,1-8.2,3.922,11.25,11.25,0,0,1-4.243-.784,7.067,7.067,0,0,1-2.964-1.987,6.7,6.7,0,0,1-1.337-2.928,17.867,17.867,0,0,1-.291-3.66V25.3h4.359V38.164a20.021,20.021,0,0,0,.291,4.131,4.361,4.361,0,0,0,1.744,2.458,5.9,5.9,0,0,0,3.313.889,8.238,8.238,0,0,0,3.72-.889,4.989,4.989,0,0,0,2.441-2.458,11.612,11.612,0,0,0,.7-4.549V25.3h4.359V48.517h-3.894Z" transform="translate(-189.319 -16.463)" fill="#001276"/>
      <path id="Path_31174" data-name="Path 31174" d="M338,47.94V24.775h3.894v3.242a8.3,8.3,0,0,1,3.255-2.719,9.941,9.941,0,0,1,4.591-1.046,9.6,9.6,0,0,1,4.708,1.046,6.193,6.193,0,0,1,2.616,2.981,9.52,9.52,0,0,1,7.963-4.079,8.332,8.332,0,0,1,5.928,1.935c1.395,1.255,2.092,3.242,2.092,5.909V47.992h-4.359V33.351a9.646,9.646,0,0,0-.407-3.4,3.478,3.478,0,0,0-1.569-1.673,5.311,5.311,0,0,0-2.615-.627,6.509,6.509,0,0,0-4.533,1.621c-1.221,1.1-1.8,2.824-1.8,5.229V47.992H353.4V32.88a6.161,6.161,0,0,0-1.046-3.922,4.162,4.162,0,0,0-3.487-1.307,7.078,7.078,0,0,0-3.429.889,4.931,4.931,0,0,0-2.267,2.562,13.046,13.046,0,0,0-.7,4.863V47.992H338Z" transform="translate(-209.379 -15.938)" fill="#001276"/>
    </g>
    <g id="Group_56105" data-name="Group 56105" transform="translate(3.867 3.874)">
      <g id="Group_56104" data-name="Group 56104">
        <path id="Path_31175" data-name="Path 31175" d="M4.177,23.915c.581-5.752,2.15-11.243,5.986-16,4.3-5.334,10.171-5.386,14.588-.157.639.784,1.279,1.569,2.15,2.615,1.453-2.2,2.732-4.131,4.185-6.379.291,1.1.465,1.778.639,2.458C34.458,16.8,37.538,27.053,42.3,36.779c2.848,5.752,5.986,11.347,11.973,15.112H39.456a15.812,15.812,0,0,0-.291-1.621c-3.72-9.831-7.556-19.661-11.392-29.492a13.368,13.368,0,0,0-.988-1.726c-.581.994-.988,1.673-1.395,2.3-1.686,3.085-5.87,10.72-5.87,10.72s-6.393,0-6.393-.052c.523-.837.814-1.36,1.162-1.882,2.848-4.34,5.754-8.733,8.544-13.073a2.251,2.251,0,0,0,.523-1.726c-1.046-3.4-6.393-4.915-9.3-2.51a12.239,12.239,0,0,0-3.72,4.758A37.326,37.326,0,0,0,7.9,26.53a22.153,22.153,0,0,0,2.441,14.223c1.453,2.667,3.487,4.863,7.149,4.863s5.405-2.405,6.858-4.915a26.171,26.171,0,0,0,1.569-3.713h4.243s-.988,6.223-2.79,9.1c-4.01,6.379-13.019,6.8-17.262,2.51a18.5,18.5,0,0,1-5.115-9.255A44.8,44.8,0,0,1,4.177,23.915Z" transform="translate(-3.867 -3.874)" fill="#001276"/>
      </g>
    </g>
  </g>
</svg>
