<svg xmlns="http://www.w3.org/2000/svg" width="30" height="30" viewBox="0 0 30 30">
  <g id="Group_7" data-name="Group 7" transform="translate(-798 -251)">
    <rect id="Rectangle_8" data-name="Rectangle 8" width="30" height="30" transform="translate(798 251)" fill="rgba(255,255,255,0)"/>
    <g id="noun-log-in-1680414" transform="translate(662.469 220.061)">
      <path id="Path_157" data-name="Path 157" d="M140.287,33.593a.349.349,0,0,0-.283.335v19.41a.341.341,0,0,0,.2.293l8.7,4.016a.366.366,0,0,0,.5-.293V53.672h4.871a.355.355,0,0,0,.348-.335V46.645a.358.358,0,0,0-.391-.345.351.351,0,0,0-.3.345V53H149.4V38.613a.34.34,0,0,0-.174-.293c-2.529-1.119-4.876-2.849-7.371-4.058h12.069V40.62a.348.348,0,0,0,.7,0V33.927a.355.355,0,0,0-.348-.335s-13.92-.009-13.982,0Zm.413.91,8,4.309V56.82l-8-3.692Zm12.873,7.111a.358.358,0,0,0-.185.052l-2.6,1.631a.531.531,0,0,0,0,.669l2.6,1.621a.38.38,0,0,0,.489-.1.351.351,0,0,0-.12-.471l-1.751-1.046h8.176a.335.335,0,1,0,0-.669h-8.176l1.751-1.056a.327.327,0,0,0,.163-.376.36.36,0,0,0-.348-.251Z" fill="#b1e3f5" stroke="#b1e3f5" stroke-width="1"/>
    </g>
  </g>
</svg>
