<svg xmlns="http://www.w3.org/2000/svg" width="30" height="30" viewBox="0 0 30 30">
  <g id="Group_3" data-name="Group 3" transform="translate(-67 -237)">
    <rect id="Rectangle_4" data-name="Rectangle 4" width="30" height="30" transform="translate(67 237)" fill="rgba(255,255,255,0)"/>
    <g id="noun-dashboard-4148733" transform="translate(69.109 238.959)">
      <path id="Path_48" data-name="Path 48" d="M479.642,7.334h-5.88a.631.631,0,0,1-.631-.631V.635A.631.631,0,0,1,473.762,0h5.88a.631.631,0,0,1,.631.631V6.7A.631.631,0,0,1,479.642,7.334Zm-5.249-1.262h4.618V1.266h-4.618Z" transform="translate(-454.776 -0.004)" fill="#b1e3f5"/>
      <path id="Path_49" data-name="Path 49" d="M278.069,7.334h-5.881a.631.631,0,0,1-.631-.631V.635A.631.631,0,0,1,272.188,0h5.881a.631.631,0,0,1,.631.631V6.7A.631.631,0,0,1,278.069,7.334Zm-5.25-1.262h4.619V1.266H272.82Z" transform="translate(-262.38 -0.004)" fill="#b1e3f5"/>
      <path id="Path_50" data-name="Path 50" d="M76.518,7.334h-5.88a.631.631,0,0,1-.631-.631V.635A.631.631,0,0,1,70.638,0h5.88a.631.631,0,0,1,.631.631V6.7a.631.631,0,0,1-.631.631ZM71.269,6.072h4.618V1.266H71.269Z" transform="translate(-70.007 -0.004)" fill="#b1e3f5"/>
      <path id="Path_51" data-name="Path 51" d="M479.642,206.825h-5.88a.631.631,0,0,1-.631-.631v-6.069a.631.631,0,0,1,.631-.631h5.88a.631.631,0,0,1,.631.631v6.069A.631.631,0,0,1,479.642,206.825Zm-5.249-1.262h4.618v-4.807h-4.618Z" transform="translate(-454.776 -190.411)" fill="#b1e3f5"/>
      <path id="Path_52" data-name="Path 52" d="M278.069,206.825h-5.881a.631.631,0,0,1-.631-.631v-6.069a.631.631,0,0,1,.631-.631h5.881a.631.631,0,0,1,.631.631v6.069A.631.631,0,0,1,278.069,206.825Zm-5.25-1.262h4.619v-4.807H272.82Z" transform="translate(-262.38 -190.411)" fill="#b1e3f5"/>
      <path id="Path_53" data-name="Path 53" d="M76.518,206.825h-5.88a.631.631,0,0,1-.631-.631v-6.069a.631.631,0,0,1,.631-.631h5.88a.631.631,0,0,1,.631.631v6.069a.631.631,0,0,1-.631.631Zm-5.249-1.262h4.618v-4.807H71.269Z" transform="translate(-70.007 -190.411)" fill="#b1e3f5"/>
      <path id="Path_54" data-name="Path 54" d="M479.642,406.319h-5.88a.631.631,0,0,1-.631-.631v-6.069a.631.631,0,0,1,.631-.631h5.88a.631.631,0,0,1,.631.631v6.069A.631.631,0,0,1,479.642,406.319Zm-5.249-1.262h4.618V400.25h-4.618Z" transform="translate(-454.776 -380.822)" fill="#b1e3f5"/>
      <path id="Path_55" data-name="Path 55" d="M278.069,406.319h-5.881a.631.631,0,0,1-.631-.631v-6.069a.631.631,0,0,1,.631-.631h5.881a.631.631,0,0,1,.631.631v6.069A.631.631,0,0,1,278.069,406.319Zm-5.25-1.262h4.619V400.25H272.82Z" transform="translate(-262.38 -380.822)" fill="#b1e3f5"/>
      <path id="Path_56" data-name="Path 56" d="M76.518,406.319h-5.88a.631.631,0,0,1-.631-.631v-6.069a.631.631,0,0,1,.631-.631h5.88a.631.631,0,0,1,.631.631v6.069a.631.631,0,0,1-.631.631Zm-5.249-1.262h4.618V400.25H71.269Z" transform="translate(-70.007 -380.822)" fill="#b1e3f5"/>
    </g>
  </g>
</svg>
