<svg xmlns="http://www.w3.org/2000/svg" width="208.222" height="60.925" viewBox="0 0 208.222 60.925">
  <g id="RE_logo-light" data-name="RE logo-light" transform="translate(1 -0.7)">
    <g id="Group_53431" data-name="Group 53431" transform="translate(77.888 16.351)">
      <path id="Path_1" data-name="Path 1" d="M228.183,72.534l-2.8-4a3.9,3.9,0,0,0,2.593-3.846c0-2.7-1.984-4.333-5.186-4.333h-5.012V72.534h2.262v-3.55h2.75a4.241,4.241,0,0,0,.47-.017l2.489,3.568Zm-2.489-7.849c0,1.531-1.027,2.436-3.011,2.436h-2.645V62.266h2.645C224.668,62.266,225.694,63.154,225.694,64.685Zm13.338,3.254a4.532,4.532,0,0,0-4.7-4.8,4.622,4.622,0,0,0-4.8,4.751c0,2.767,2.019,4.768,5.134,4.768a4.711,4.711,0,0,0,3.742-1.514L237.24,69.8a3.33,3.33,0,0,1-2.523,1.009,2.813,2.813,0,0,1-3.011-2.228H239C239.015,68.375,239.033,68.114,239.033,67.94Zm-4.7-3.063a2.53,2.53,0,0,1,2.628,2.262h-5.273A2.568,2.568,0,0,1,234.334,64.877Zm9.66,7.779c2.61,0,4.211-1.131,4.211-2.871,0-3.637-5.743-1.967-5.743-3.846,0-.609.627-1.044,1.949-1.044a5.087,5.087,0,0,1,2.663.7l.835-1.653a7.4,7.4,0,0,0-3.481-.8c-2.506,0-4.09,1.149-4.09,2.906,0,3.707,5.743,2.036,5.743,3.811,0,.644-.574,1.027-1.949,1.027a6.253,6.253,0,0,1-3.237-.922l-.835,1.653A7.384,7.384,0,0,0,243.994,72.656Zm10.261,0a4.763,4.763,0,1,0-4.942-4.768A4.686,4.686,0,0,0,254.255,72.656Zm0-1.862a2.91,2.91,0,1,1,2.767-2.906A2.7,2.7,0,0,1,254.255,70.794Zm7.04,1.74h2.175V59.621H261.3Zm11.644-9.293-2.976,6.892-2.889-6.892h-2.262l3.985,9.293h2.245l3.985-9.293Zm11.929,4.7a4.532,4.532,0,0,0-4.7-4.8,4.622,4.622,0,0,0-4.8,4.751c0,2.767,2.019,4.768,5.134,4.768a4.711,4.711,0,0,0,3.742-1.514l-1.166-1.34a3.33,3.33,0,0,1-2.523,1.009,2.813,2.813,0,0,1-3.011-2.228h7.292C284.851,68.375,284.868,68.114,284.868,67.94Zm-4.7-3.063a2.53,2.53,0,0,1,2.628,2.262h-5.273A2.568,2.568,0,0,1,280.169,64.877ZM288.8,71.42V66.9h6.3V65.8h-6.3V61.466h7.066V60.352h-8.353V72.534h8.614V71.42Zm14.756-8.11a3.847,3.847,0,0,0-3.481,1.758V63.38h-1.183v9.154h1.236v-4.8a3,3,0,0,1,3.2-3.307c1.74,0,2.75.992,2.75,2.924v5.186h1.236V67.226C307.318,64.6,305.786,63.311,303.559,63.311Zm14.44.07v1.758a4.131,4.131,0,0,0-3.62-1.827,4.44,4.44,0,1,0,0,8.875,4.119,4.119,0,0,0,3.568-1.775v1.166c0,2.262-1.062,3.324-3.376,3.324a5.448,5.448,0,0,1-3.6-1.253l-.627.94A6.384,6.384,0,0,0,314.6,76c3.028,0,4.577-1.427,4.577-4.577V63.38Zm-3.5,7.709a3.352,3.352,0,1,1,3.481-3.359A3.272,3.272,0,0,1,314.5,71.09Zm8.763-9.711a.888.888,0,0,0,.9-.9.878.878,0,0,0-.9-.853.879.879,0,1,0,0,1.758Zm-.626,11.155h1.236V63.38h-1.236Zm9.338-9.223a3.847,3.847,0,0,0-3.481,1.758V63.38h-1.183v9.154h1.236v-4.8a3,3,0,0,1,3.2-3.307c1.74,0,2.75.992,2.75,2.924v5.186h1.236V67.226C335.734,64.6,334.2,63.311,331.974,63.311Zm15.135,4.647a4.362,4.362,0,0,0-4.438-4.647,4.409,4.409,0,0,0-4.473,4.647,4.84,4.84,0,0,0,8.336,3.167l-.7-.8a3.608,3.608,0,0,1-2.8,1.2,3.388,3.388,0,0,1-3.6-3.185h7.657C347.092,68.2,347.11,68.062,347.11,67.957Zm-4.438-3.585a3.184,3.184,0,0,1,3.254,3.045h-6.491A3.179,3.179,0,0,1,342.672,64.372Z" transform="translate(-217.776 -59.621)" fill="#fff"/>
      <path id="Path_2" data-name="Path 2" d="M216.959,130.078v-2.652h3.51v-.643h-3.51v-2.54H220.9v-.653h-4.654v7.141h4.8v-.653Zm10.733-6.488v3.183h-4.247v-3.183h-.718v7.141h.718v-3.3h4.247v3.3h.708v-7.141Zm8.343,7.141-1.658-2.448a2.2,2.2,0,0,0,1.551-2.244c0-1.53-1.047-2.448-2.773-2.448h-2.54v7.141h.717v-2.265h1.823a4.6,4.6,0,0,0,.543-.031l1.551,2.3Zm-2.9-2.907h-1.8v-3.581h1.8c1.357,0,2.075.653,2.075,1.8C235.211,127.16,234.494,127.823,233.136,127.823Zm7.024,2.907h.717v-7.141h-.717Zm5.379-5.407a2.115,2.115,0,0,0-1.939,1.03v-.99h-.659v5.366h.688v-2.816a1.719,1.719,0,0,1,1.784-1.938c.97,0,1.532.581,1.532,1.714v3.04h.688v-3.112A2.007,2.007,0,0,0,245.539,125.324Zm6.407,4.56a1.1,1.1,0,0,1-.756.275c-.572,0-.882-.347-.882-.979v-3.2h1.551v-.612h-1.551v-1.173h-.688v1.173h-.911v.612h.911v3.244a1.387,1.387,0,0,0,1.493,1.561,1.587,1.587,0,0,0,1.076-.377Zm5.766-1.836a2.5,2.5,0,0,0-2.472-2.724,2.527,2.527,0,0,0-2.492,2.724,2.59,2.59,0,0,0,2.676,2.734,2.454,2.454,0,0,0,1.968-.877l-.388-.469a1.965,1.965,0,0,1-1.561.7,1.925,1.925,0,0,1-2.007-1.867H257.7C257.7,128.19,257.711,128.109,257.711,128.048Zm-2.472-2.1a1.814,1.814,0,0,1,1.813,1.785h-3.617A1.812,1.812,0,0,1,255.239,125.946Zm7.936-.581v1.03a2.269,2.269,0,0,0-2.017-1.071,2.6,2.6,0,0,0,0,5.2,2.261,2.261,0,0,0,1.988-1.041v.684c0,1.326-.591,1.949-1.881,1.949a2.944,2.944,0,0,1-2.007-.735l-.349.551a3.445,3.445,0,0,0,2.375.826c1.687,0,2.55-.837,2.55-2.683v-4.713Zm-1.949,4.519a1.964,1.964,0,1,1,1.939-1.969A1.869,1.869,0,0,1,261.226,129.884Zm5.192-3.469v-1.051h-.659v5.366h.688V128c0-1.265.65-1.979,1.716-1.979.048,0,.107.01.165.01v-.7A1.907,1.907,0,0,0,266.419,126.415Zm4.931-1.092a3.136,3.136,0,0,0-2.075.724l.31.541a2.521,2.521,0,0,1,1.7-.633,1.282,1.282,0,0,1,1.445,1.418v.326h-1.619c-1.464,0-1.968.694-1.968,1.52,0,.928.708,1.561,1.862,1.561a1.887,1.887,0,0,0,1.755-.888v.837h.659V127.4A1.856,1.856,0,0,0,271.35,125.324Zm-.242,4.887c-.814,0-1.29-.388-1.29-1.01,0-.551.32-.959,1.309-.959h1.6v.877A1.631,1.631,0,0,1,271.107,130.21Zm6.621-.326a1.1,1.1,0,0,1-.756.275c-.572,0-.882-.347-.882-.979v-3.2h1.551v-.612H276.09v-1.173H275.4v1.173h-.911v.612h.911v3.244a1.387,1.387,0,0,0,1.493,1.561,1.588,1.588,0,0,0,1.076-.377Zm1.845-5.693a.508.508,0,0,0,.5-.53.5.5,0,0,0-.5-.5.515.515,0,0,0,0,1.03Zm-.349,6.539h.688v-5.366h-.688Zm4.689.051a2.732,2.732,0,1,0-2.6-2.734A2.577,2.577,0,0,0,283.912,130.782Zm0-.643a2.1,2.1,0,1,1,1.891-2.091A1.921,1.921,0,0,1,283.912,130.139Zm6.593-4.815a2.115,2.115,0,0,0-1.939,1.03v-.99h-.659v5.366h.688v-2.816a1.719,1.719,0,0,1,1.784-1.938c.97,0,1.532.581,1.532,1.714v3.04h.688v-3.112A2.007,2.007,0,0,0,290.505,125.324Zm5.33,5.458c1.328,0,2.1-.6,2.1-1.53,0-2.061-3.306-.969-3.306-2.418,0-.51.407-.888,1.328-.888a2.521,2.521,0,0,1,1.5.459l.3-.581a3.326,3.326,0,0,0-1.8-.5c-1.3,0-2.017.653-2.017,1.53,0,2.122,3.306,1.02,3.306,2.418,0,.53-.4.877-1.367.877a2.979,2.979,0,0,1-1.813-.6l-.31.571A3.293,3.293,0,0,0,295.835,130.782Zm7.931.01c1.736,0,2.531-.9,2.531-1.949,0-2.6-4.179-1.418-4.179-3.377,0-.714.553-1.3,1.794-1.3a3.37,3.37,0,0,1,1.862.592l.242-.6a3.694,3.694,0,0,0-2.1-.632c-1.726,0-2.5.908-2.5,1.959,0,2.642,4.179,1.438,4.179,3.4,0,.7-.553,1.265-1.823,1.265a3.24,3.24,0,0,1-2.24-.867l-.281.581A3.573,3.573,0,0,0,303.766,130.792Zm6.033-.01a2.732,2.732,0,1,0-2.6-2.734A2.577,2.577,0,0,0,309.8,130.782Zm0-.643a2.1,2.1,0,1,1,1.891-2.091A1.921,1.921,0,0,1,309.8,130.139Zm3.994.592h.688v-7.57h-.688Zm6.511-5.366v2.816a1.708,1.708,0,0,1-1.736,1.949c-.97,0-1.532-.581-1.532-1.724v-3.04h-.688v3.111a2.029,2.029,0,0,0,2.152,2.306,2.007,2.007,0,0,0,1.833-1.03v.979h.659v-5.366Zm5.06,4.519a1.1,1.1,0,0,1-.756.275c-.572,0-.882-.347-.882-.979v-3.2h1.551v-.612h-1.551v-1.173h-.688v1.173h-.911v.612h.911v3.244a1.387,1.387,0,0,0,1.493,1.561,1.587,1.587,0,0,0,1.076-.377Zm1.844-5.693a.508.508,0,0,0,.5-.53.5.5,0,0,0-.5-.5.515.515,0,0,0,0,1.03Zm-.349,6.539h.688v-5.366h-.688Zm4.689.051a2.732,2.732,0,1,0-2.6-2.734A2.577,2.577,0,0,0,331.549,130.782Zm0-.643a2.1,2.1,0,1,1,1.891-2.091A1.921,1.921,0,0,1,331.549,130.139Zm6.593-4.815a2.115,2.115,0,0,0-1.939,1.03v-.99h-.659v5.366h.688v-2.816a1.719,1.719,0,0,1,1.784-1.938c.97,0,1.532.581,1.532,1.714v3.04h.688v-3.112A2.007,2.007,0,0,0,338.142,125.324Zm5.331,5.458c1.328,0,2.1-.6,2.1-1.53,0-2.061-3.306-.969-3.306-2.418,0-.51.407-.888,1.328-.888a2.52,2.52,0,0,1,1.5.459l.3-.581a3.326,3.326,0,0,0-1.8-.5c-1.3,0-2.017.653-2.017,1.53,0,2.122,3.306,1.02,3.306,2.418,0,.53-.4.877-1.367.877a2.979,2.979,0,0,1-1.813-.6l-.31.571A3.293,3.293,0,0,0,343.472,130.782Z" transform="translate(-216.242 -104.096)" fill="#fff"/>
    </g>
    <g id="Group_14" data-name="Group 14" transform="translate(-1 0.7)">
      <path id="Path_3" data-name="Path 3" d="M31.647,7.873a13.023,13.023,0,0,1-6.438,6.618,13.433,13.433,0,0,1-9.115.9,12.857,12.857,0,0,0-9.145,1.053A13.034,13.034,0,0,0,0,27.456v1.053A12.833,12.833,0,0,1,19.223,19a12.742,12.742,0,0,1,5.6,6.618,14,14,0,0,0,2.256,3.971,12.984,12.984,0,0,1,3.851-2.858l.752-.361a13.8,13.8,0,0,1,8.995-.9A12.909,12.909,0,0,0,54.841,6.7,12.889,12.889,0,0,0,31.647,7.873Z" transform="translate(0 0.285)" fill="#fff"/>
      <path id="Path_4" data-name="Path 4" d="M19.777,58.5C13.4,54.826,4.558,56.884,1.2,64.076a10.842,10.842,0,0,0-1.1,4.35A12.9,12.9,0,0,0,24.648,73.3a14.244,14.244,0,0,1,2.557-3.79,21.739,21.739,0,0,1-2.256-3.971C24.119,62.711,22,60.494,19.777,58.5Z" transform="translate(-0.07 -39.631)" fill="#fff"/>
      <path id="Path_5" data-name="Path 5" d="M1.687,12.065A12.98,12.98,0,0,0,4.454,21.06a12.99,12.99,0,0,1,2.677,8.664,13.1,13.1,0,0,1-3.55,8.6A13.05,13.05,0,0,0,11.7,60.288,13.023,13.023,0,0,0,23.376,39.711a13.835,13.835,0,0,1-2.738-8.664l.03-.842a13.8,13.8,0,0,1,3.58-8.6A13.253,13.253,0,0,0,27.5,13.509,12.926,12.926,0,0,0,1.687,12.065Z" transform="matrix(1, 0.017, -0.017, 1, 29.075, 0)" fill="rgba(16,145,150,0.6)" opacity="0.5"/>
      <path id="Path_6" data-name="Path 6" d="M57.466,113.388a20.571,20.571,0,0,1-2.166.752,13.464,13.464,0,0,1,12.123,9.446,12.89,12.89,0,1,0,11.1-16.4,13.874,13.874,0,0,1-8.814-1.955l-.692-.451a10.405,10.405,0,0,1-1.8-1.414,11.754,11.754,0,0,0-2.136,2.948A15.149,15.149,0,0,1,57.466,113.388Z" transform="translate(-38.664 -71.988)" fill="#fff"/>
    </g>
  </g>
</svg>
