<svg id="Component_65_35" data-name="Component 65 – 35" xmlns="http://www.w3.org/2000/svg" width="32" height="32" viewBox="0 0 32 32">
  <g id="Rectangle_20" data-name="Rectangle 20" fill="#fff" stroke="#707070" stroke-width="1" opacity="0">
    <rect width="32" height="32" stroke="none"/>
    <rect x="0.5" y="0.5" width="31" height="31" fill="none"/>
  </g>
  <g id="noun-search-1166289" transform="translate(5 5)">
    <path id="Path_63" data-name="Path 63" d="M157.261,78.4a8.861,8.861,0,1,0,5.577,15.736l6,6a.919.919,0,0,0,1.3,0,.908.908,0,0,0,0-1.289l-6-6A8.858,8.858,0,0,0,157.261,78.4Zm0,1.833a7.028,7.028,0,1,1-7.028,7.028A7.014,7.014,0,0,1,157.261,80.232Z" transform="translate(-148.4 -78.399)" fill="#fff"/>
  </g>
</svg>
