<svg xmlns="http://www.w3.org/2000/svg" width="30" height="30" viewBox="0 0 30 30">
  <g id="Group_53475" data-name="Group 53475" transform="translate(-31 -460)">
    <rect id="Rectangle_5077" data-name="Rectangle 5077" width="30" height="30" transform="translate(31 460)" fill="rgba(255,255,255,0)"/>
    <g id="noun-log-out-1191735" transform="translate(-147.171 355.63)">
      <path id="Path_21520" data-name="Path 21520" d="M198.483,126.558h-10.8a1.964,1.964,0,0,1-1.964-1.964V113.3a1.964,1.964,0,0,1,1.964-1.964h10.8a.982.982,0,1,0,0-1.964h-10.8a3.929,3.929,0,0,0-3.929,3.929v11.3a3.929,3.929,0,0,0,3.929,3.929h10.8a.982.982,0,1,0,0-1.964Z" fill="#b1e3f5"/>
      <path id="Path_21521" data-name="Path 21521" d="M326.027,201.041l-3.659-3.674a.983.983,0,0,0-1.39,1.39l1.979,1.994h-6.973a.982.982,0,1,0,0,1.964h6.973l-1.994,1.994a.988.988,0,1,0,1.4,1.39l3.668-3.668a.982.982,0,0,0,0-1.39Z" transform="translate(-123.886 -82.787)" fill="#b1e3f5"/>
    </g>
  </g>
</svg>
